<?xml version="1.0" encoding="utf-8"?>
<!-- Generator: Adobe Illustrator 24.0.0, SVG Export Plug-In . SVG Version: 6.00 Build 0)  -->
<svg version="1.1" xmlns="http://www.w3.org/2000/svg" xmlns:xlink="http://www.w3.org/1999/xlink" x="0px" y="0px"
	 viewBox="0 0 64 64" enable-background="new 0 0 64 64" xml:space="preserve">
<g id="Grids" display="none">
	<g id="Grid_32_" display="inline">
		<g>
			<path fill="#FF0000" d="M51.9,4.1v55.8H12.1V4.1H51.9 M52,4H12v56h40V4L52,4z"/>
		</g>
		<g>
			<path fill="#4600F0" d="M59.9,12.1v39.8H4.1V12.1H59.9 M60,12H4v40h56V12L60,12z"/>
		</g>
		<g>
			<path fill="#F0C800" d="M55.9,8.1v47.8H8.1V8.1H55.9 M56,8H8v48h48V8L56,8z"/>
		</g>
		<g>
			<path fill="#00F096" d="M32,6.1c14.281,0,25.9,11.619,25.9,25.9S46.281,57.9,32,57.9S6.1,46.281,6.1,32S17.719,6.1,32,6.1 M32,6
				C17.641,6,6,17.641,6,32s11.641,26,26,26s26-11.641,26-26S46.359,6,32,6L32,6z"/>
		</g>
	</g>
</g>
<g id="Captions">
	<g>
	</g>
</g>
<g id="Icons">
	<g>
		<path fill="#ffffff" d="M13.5,36h1V20c0-1.93,1.57-3.5,3.5-3.5c3.033,0,5.5,2.467,5.5,5.5v2h1v-2c0-3.584-2.916-6.5-6.5-6.5
			c-2.481,0-4.5,2.019-4.5,4.5V36z"/>
		<rect fill="#ffffff" x="23.5" y="30" width="1" height="6"/>
		<path fill="#ffffff" d="M18.5,22c0-0.276-0.224-0.5-0.5-0.5h-2c-0.276,0-0.5,0.224-0.5,0.5v5c0,0.827,0.673,1.5,1.5,1.5h10
			c0.827,0,1.5-0.673,1.5-1.5s-0.673-1.5-1.5-1.5h-8.5V22z M27,26.5c0.276,0,0.5,0.224,0.5,0.5s-0.224,0.5-0.5,0.5H17
			c-0.276,0-0.5-0.224-0.5-0.5v-4.5h1V26c0,0.276,0.224,0.5,0.5,0.5H27z"/>
		<path fill="#ffffff" d="M26.282,17.722c0.566,0.566,1.555,0.567,2.122,0l0.466-0.466c2.936,1.941,6.919,1.567,9.434-0.948
			c2.924-2.924,2.924-7.682,0-10.606c-2.923-2.923-7.683-2.923-10.607,0c-2.515,2.514-2.89,6.497-0.948,9.434l-0.466,0.466
			C25.695,16.188,25.697,17.137,26.282,17.722z M28.404,6.408c2.535-2.533,6.658-2.534,9.193,0c2.534,2.535,2.534,6.658,0,9.192
			c-2.268,2.269-5.915,2.529-8.483,0.604c-0.199-0.149-0.478-0.129-0.653,0.047l-0.763,0.763c-0.19,0.189-0.519,0.19-0.707,0
			c-0.192-0.19-0.198-0.507,0-0.707l0.763-0.763c0.176-0.176,0.196-0.454,0.047-0.653C25.876,12.323,26.136,8.676,28.404,6.408z"/>
		<path fill="#ffffff" d="M47.5,44v15.5h-1.092c0.056-0.157,0.092-0.324,0.092-0.5V33c0-0.386-0.15-0.734-0.39-1c0.24-0.266,0.39-0.614,0.39-1
			c0-0.827-0.673-1.5-1.5-1.5h-6.5V26c0-0.276-0.224-0.5-0.5-0.5h-2c-0.276,0-0.5,0.224-0.5,0.5v5c0,0.827,0.673,1.5,1.5,1.5h4.592
			C41.536,32.657,41.5,32.824,41.5,33c0,0.827,0.673,1.5,1.5,1.5h0.5V59c0,0.176,0.036,0.343,0.092,0.5h-1.184
			c0.056-0.157,0.092-0.324,0.092-0.5c0-0.827-0.673-1.5-1.5-1.5h-0.5c0-6.133,0-11.886,0-19H41c0.827,0,1.5-0.673,1.5-1.5
			s-0.673-1.5-1.5-1.5h-0.5v-0.28c0-0.402,0.02-0.793,0.039-1.195l-0.998-0.05C39.52,34.394,39.5,34.802,39.5,35.22v4.28
			c-12.155,0,1.776,0-9,0v-4.28c0-5.072,1.531-9.935,4.429-14.063c1.692-2.415,5.162-2.615,7.062-0.402
			c1.453,1.7,1.584,3.754,0.351,5.498c-0.358,0.51-0.675,1.018-0.94,1.51l0.879,0.476c0.248-0.458,0.544-0.933,0.879-1.409
			c1.492-2.108,1.335-4.684-0.408-6.724c-2.322-2.705-6.573-2.473-8.64,0.479c-3.016,4.297-4.61,9.359-4.61,14.637
			c0,14.367,0,9.784,0,23.78c0,0.176,0.036,0.343,0.092,0.5h-3.184c0.056-0.157,0.092-0.324,0.092-0.5c0-0.827-0.673-1.5-1.5-1.5
			h-0.5V44c0-0.276-0.224-0.5-0.5-0.5h-4c-0.276,0-0.5,0.224-0.5,0.5v13.5H18v1c4.147,0,1.204,0,3,0c0.276,0,0.5,0.224,0.5,0.5
			s-0.224,0.5-0.5,0.5c-2.216,0-2.566,0-4.5,0V44h-1v15.5h-3V44h-1v15.5H8v1c11.606,0,37.83,0,48,0v-1h-3.5V44h-1v15.5h-3V44H47.5z
			 M36.5,31v-4.5h1V30c0,0.276,0.224,0.5,0.5,0.5h7c0.275,0,0.5,0.224,0.5,0.5s-0.225,0.5-0.5,0.5c-2.922,0-5.164,0-8,0
			C36.725,31.5,36.5,31.276,36.5,31z M44.5,59V34c0-0.276-0.224-0.5-0.5-0.5h-1c-0.275,0-0.5-0.224-0.5-0.5s0.225-0.5,0.5-0.5h2
			c0.275,0,0.5,0.224,0.5,0.5v26c0,0.276-0.225,0.5-0.5,0.5S44.5,59.276,44.5,59z M41,36.5c0.275,0,0.5,0.224,0.5,0.5
			s-0.225,0.5-0.5,0.5h-0.5v-1H41z M39.5,57.5h-5v-17h5V57.5z M33.5,40.5v17h-3v-17H33.5z M20.5,57.5v-13h3v13
			C21.747,57.5,22.257,57.5,20.5,57.5z M22.408,59.5c0.123-0.345,0.123-0.655,0-1c3.472,0,0.247,0,2.592,0
			c0.276,0,0.5,0.224,0.5,0.5s-0.224,0.5-0.5,0.5H22.408z M31,59.5c-0.276,0-0.5-0.224-0.5-0.5v-0.5h3V59
			c0,0.157,0.044,0.383,0.086,0.5H31z M35,59.5c-0.275,0-0.5-0.224-0.5-0.5v-0.5c2.482,0,4.011,0,6.5,0c0.275,0,0.5,0.224,0.5,0.5
			s-0.225,0.5-0.5,0.5H35z"/>
		<path fill="#ffffff" d="M56.5,38c0-0.276-0.224-0.5-0.5-0.5h-8v1h7.5v3H48v1h8c0.276,0,0.5-0.224,0.5-0.5V38z"/>
		<path fill="#ffffff" d="M7.5,42c0,0.276,0.224,0.5,0.5,0.5h20v-1H8.5v-3H28v-1H8c-0.276,0-0.5,0.224-0.5,0.5V42z"/>
		<path fill="#ffffff" d="M43.5,16c0,3.584,2.916,6.5,6.5,6.5c1.379,0,2.5-1.122,2.5-2.5v-4c0-2.481-2.019-4.5-4.5-4.5S43.5,13.519,43.5,16z
			 M48,12.5c1.93,0,3.5,1.57,3.5,3.5v4c0,0.827-0.673,1.5-1.5,1.5c-3.032,0-5.5-2.467-5.5-5.5C44.5,14.07,46.07,12.5,48,12.5z"/>
		<path fill="#ffffff" d="M30.5,11.5H36c0.445,0,0.668-0.538,0.354-0.854L34.707,9l1.646-1.646C36.668,7.038,36.445,6.5,36,6.5h-6
			c-0.276,0-0.5,0.224-0.5,0.5c0,2.895,0,5.105,0,8h1V11.5z M33.646,8.646c-0.195,0.195-0.195,0.512,0,0.707l1.146,1.146H30.5v-3
			h4.293L33.646,8.646z"/>
		<path fill="#ffffff" d="M22,14.5c1.378,0,2.5-1.122,2.5-2.5V8c0-2.481-2.019-4.5-4.5-4.5S15.5,5.519,15.5,8C15.5,11.584,18.416,14.5,22,14.5z
			 M20,4.5c1.93,0,3.5,1.57,3.5,3.5v4c0,0.827-0.673,1.5-1.5,1.5c-3.033,0-5.5-2.467-5.5-5.5C16.5,6.07,18.07,4.5,20,4.5z"/>
	</g>
</g>
</svg>
