<?xml version="1.0" encoding="utf-8"?>
<!-- Generator: Adobe Illustrator 24.0.0, SVG Export Plug-In . SVG Version: 6.00 Build 0)  -->
<svg version="1.1" xmlns="http://www.w3.org/2000/svg" xmlns:xlink="http://www.w3.org/1999/xlink" x="0px" y="0px"
	 viewBox="0 0 64 64" enable-background="new 0 0 64 64" xml:space="preserve">
<g id="Grids" display="none">
	<g id="Grid_45_" display="inline">
		<g>
			<path fill="#FF0000" d="M51.9,4.1v55.8H12.1V4.1H51.9 M52,4H12v56h40V4L52,4z"/>
		</g>
		<g>
			<path fill="#4600F0" d="M59.9,12.1v39.8H4.1V12.1H59.9 M60,12H4v40h56V12L60,12z"/>
		</g>
		<g>
			<path fill="#F0C800" d="M55.9,8.1v47.8H8.1V8.1H55.9 M56,8H8v48h48V8L56,8z"/>
		</g>
		<g>
			<path fill="#00F096" d="M32,6.1c14.281,0,25.9,11.619,25.9,25.9S46.281,57.9,32,57.9S6.1,46.281,6.1,32S17.719,6.1,32,6.1 M32,6
				C17.641,6,6,17.641,6,32s11.641,26,26,26s26-11.641,26-26S46.359,6,32,6L32,6z"/>
		</g>
	</g>
</g>
<g id="Captions">
	<g>
	</g>
</g>
<g id="Icons">
	<g>
		<path fill="#ffffff" d="M50.5,18.34V10.5h0.427c0.827,0,1.5-0.673,1.5-1.5V7c0-0.827-0.673-1.5-1.5-1.5h-8c-0.827,0-1.5,0.673-1.5,1.5v2
			c0,0.827,0.673,1.5,1.5,1.5H43.5v1.85h1V10.5h5v7.84H50.5z M42.427,9V7c0-0.276,0.225-0.5,0.5-0.5h8c0.275,0,0.5,0.224,0.5,0.5v2
			c0,0.276-0.225,0.5-0.5,0.5h-8C42.651,9.5,42.427,9.276,42.427,9z"/>
		<rect fill="#ffffff" x="11.5" y="31.34" width="1" height="12.65"/>
		<rect fill="#ffffff" x="34" y="51.5" width="2" height="1"/>
		<rect fill="#ffffff" x="51.5" y="31.34" width="1" height="12.66"/>
		<path fill="#ffffff" d="M54.233,29.648l1.41-1.41c0.587-0.586,0.587-1.54,0.002-2.125L33.764,4.231c-0.943-0.943-2.583-0.943-3.526,0
			L8.355,26.113c-0.587,0.588-0.587,1.538,0.002,2.124l1.413,1.408c0.585,0.584,1.535,0.583,2.119-0.002L32,9.542l20.106,20.097
			C52.69,30.22,53.642,30.226,54.233,29.648z M32.354,8.481c-0.195-0.195-0.512-0.195-0.707,0L11.183,28.936
			c-0.195,0.195-0.512,0.194-0.707,0.001l-1.412-1.408c-0.196-0.194-0.198-0.511-0.001-0.708L30.944,4.938
			c0.584-0.585,1.525-0.586,2.112,0l21.882,21.882c0.195,0.195,0.194,0.514-0.002,0.711l-1.405,1.405
			c-0.195,0.19-0.524,0.188-0.718-0.005L32.354,8.481z"/>
		<path fill="#ffffff" d="M27.5,58c0,0.276,0.224,0.5,0.5,0.5h1c0.275,0,0.5,0.224,0.5,0.5s-0.225,0.5-0.5,0.5h-1v1c4.508,0-3.676,0,5,0
			c0.827,0,1.5-0.673,1.5-1.5s-0.673-1.5-1.5-1.5h-0.5V42.027c0.059-0.665,0.155-1.293,0.297-1.917l-0.975-0.221
			c-0.12,0.529-0.21,1.06-0.274,1.61H28h-4v1h3.5V58z M33.5,59c0,0.276-0.225,0.5-0.5,0.5h-2.592c0.123-0.345,0.123-0.655,0-1
			c3.472,0,0.247,0,2.592,0C33.275,58.5,33.5,58.724,33.5,59z M31.5,42.5v15c-1.753,0-1.243,0-3,0v-15H31.5z"/>
		<path fill="#ffffff" d="M42.5,28v-4c0-2.481-2.019-4.5-4.5-4.5s-4.5,2.019-4.5,4.5c0,3.584,2.916,6.5,6.5,6.5C41.379,30.5,42.5,29.378,42.5,28z
			 M41.5,28c0,0.827-0.673,1.5-1.5,1.5c-3.032,0-5.5-2.467-5.5-5.5c0-1.93,1.57-3.5,3.5-3.5s3.5,1.57,3.5,3.5V28z"/>
		<path fill="#ffffff" d="M35.529,34.238c1.084-2.003,0.793-4.295-0.779-6.133c-2.301-2.68-6.556-2.497-8.64,0.479
			c-2.618,3.733-4.195,8.093-4.559,12.607l0.996,0.08c0.35-4.336,1.864-8.525,4.381-12.113c1.697-2.422,5.169-2.607,7.062-0.401
			c1.312,1.533,1.552,3.357,0.66,5.007L35.529,34.238z"/>
		<path fill="#ffffff" d="M39,35.5h-8.5V32c0-0.276-0.224-0.5-0.5-0.5h-2c-0.276,0-0.5,0.224-0.5,0.5v5c0,0.827,0.673,1.5,1.5,1.5h6.592
			C35.536,38.657,35.5,38.824,35.5,39c0,0.827,0.673,1.5,1.5,1.5h0.5v4.71h1V40c0-0.276-0.224-0.5-0.5-0.5h-1
			c-0.275,0-0.5-0.224-0.5-0.5s0.225-0.5,0.5-0.5h2c0.275,0,0.5,0.224,0.5,0.5v4.18h1V39c0-0.386-0.15-0.734-0.39-1
			c0.24-0.266,0.39-0.614,0.39-1C40.5,36.173,39.827,35.5,39,35.5z M29,37.5c-0.275,0-0.5-0.224-0.5-0.5v-4.5h1V36
			c0,0.276,0.224,0.5,0.5,0.5h9c0.275,0,0.5,0.224,0.5,0.5s-0.225,0.5-0.5,0.5C34.55,37.5,33.448,37.5,29,37.5z"/>
		<path fill="#ffffff" d="M4.612,47.016l9.771,6.51c0.699,0.466,1.117,1.246,1.117,2.084V60h1v-4.39c0-1.173-0.584-2.264-1.563-2.916l-9.772-6.511
			C4.749,45.907,4.5,45.443,4.5,44.94V38c0-0.896,0.797-1.639,1.759-1.477C6.967,36.639,7.5,37.321,7.5,38.11v5.27
			c0,0.523,0.28,1.017,0.736,1.291l7.159,4.219c0.985,0.583,2.283,0.303,2.952-0.64c0.62-0.869,0.477-2.134-0.334-2.944l-2.18-2.18
			c-0.664-0.663-0.646-1.78,0.121-2.409c0.638-0.518,1.631-0.427,2.262,0.206l5.67,5.67c1.04,1.041,1.613,2.424,1.613,3.896V60h1
			v-9.51c0-1.739-0.677-3.375-1.906-4.604l-5.67-5.67c-0.991-0.99-2.572-1.11-3.601-0.273c-1.211,0.99-1.291,2.797-0.196,3.89
			l2.18,2.18c0.469,0.469,0.566,1.18,0.226,1.658c-0.37,0.522-1.084,0.68-1.628,0.358l-7.156-4.218
			c-0.15-0.09-0.248-0.26-0.248-0.432v-5.27c0-1.273-0.894-2.38-2.078-2.573C4.873,35.277,3.5,36.468,3.5,38v6.94
			C3.5,45.779,3.916,46.556,4.612,47.016z"/>
		<path fill="#ffffff" d="M57.579,35.536c-1.186,0.194-2.079,1.3-2.079,2.574v5.27c0,0.172-0.098,0.341-0.244,0.43l-7.161,4.22
			c-0.545,0.322-1.257,0.164-1.628-0.36c-0.34-0.476-0.242-1.187,0.227-1.656l2.18-2.18c1.091-1.089,1.02-2.895-0.197-3.891
			c-1.028-0.837-2.608-0.715-3.6,0.274l-5.67,5.67c-1.229,1.229-1.906,2.864-1.906,4.604V60h1v-9.51
			c0-1.472,0.573-2.856,1.613-3.896l5.67-5.67c0.634-0.633,1.627-0.721,2.261-0.207c0.771,0.632,0.784,1.748,0.122,2.41l-2.18,2.18
			c-0.811,0.81-0.954,2.075-0.335,2.942c0.668,0.946,1.964,1.229,2.952,0.642l7.164-4.222c0.452-0.272,0.732-0.766,0.732-1.289
			v-5.27c0-0.789,0.533-1.471,1.242-1.587C58.709,36.36,59.5,37.112,59.5,38v6.94c0,0.503-0.249,0.967-0.667,1.244l-9.771,6.51
			c-0.979,0.652-1.562,1.743-1.562,2.916V60h1v-4.39c0-0.838,0.418-1.618,1.117-2.084l9.769-6.509
			c0.698-0.461,1.114-1.238,1.114-2.077V38C60.5,36.49,59.158,35.282,57.579,35.536z"/>
	</g>
</g>
</svg>
