<?xml version="1.0" encoding="utf-8"?>
<!-- Generator: Adobe Illustrator 24.0.0, SVG Export Plug-In . SVG Version: 6.00 Build 0)  -->
<svg version="1.1" xmlns="http://www.w3.org/2000/svg" xmlns:xlink="http://www.w3.org/1999/xlink" x="0px" y="0px"
	 viewBox="0 0 64 64" enable-background="new 0 0 64 64" xml:space="preserve">
<g id="Grids" display="none">
	<g id="Grid_52_" display="inline">
		<g>
			<path fill="#FF0000" d="M51.9,4.1v55.8H12.1V4.1H51.9 M52,4H12v56h40V4L52,4z"/>
		</g>
		<g>
			<path fill="#4600F0" d="M59.9,12.1v39.8H4.1V12.1H59.9 M60,12H4v40h56V12L60,12z"/>
		</g>
		<g>
			<path fill="#F0C800" d="M55.9,8.1v47.8H8.1V8.1H55.9 M56,8H8v48h48V8L56,8z"/>
		</g>
		<g>
			<path fill="#00F096" d="M32,6.1c14.281,0,25.9,11.619,25.9,25.9S46.281,57.9,32,57.9S6.1,46.281,6.1,32S17.719,6.1,32,6.1 M32,6
				C17.641,6,6,17.641,6,32s11.641,26,26,26s26-11.641,26-26S46.359,6,32,6L32,6z"/>
		</g>
	</g>
</g>
<g id="Captions">
	<g>
	</g>
</g>
<g id="Icons">
	<g>
		<rect fill="#ffffff" x="36" y="43.5" width="4" height="1"/>
		<path fill="#ffffff" d="M26.5,36V21c0-0.827-0.673-1.5-1.5-1.5h-4c-0.827,0-1.5,0.673-1.5,1.5s0.673,1.5,1.5,1.5h2.5V36h1V21.5H21
			c-0.276,0-0.5-0.225-0.5-0.5s0.224-0.5,0.5-0.5h4c0.276,0,0.5,0.225,0.5,0.5v15H26.5z"/>
		<path fill="#ffffff" d="M51,49.5h-0.592c0.056-0.157,0.092-0.324,0.092-0.5c0-0.827-0.673-1.5-1.5-1.5h-0.5V38c0-1.379-1.121-2.5-2.5-2.5h-1.5v-1
			H45c0.827,0,1.5-0.673,1.5-1.5s-0.673-1.5-1.5-1.5H35v1h10c0.275,0,0.5,0.225,0.5,0.5s-0.225,0.5-0.5,0.5c-3.668,0-5.353,0-9,0v1
			h5.5v11.59h1V34.5h1c0,5.178,0,6.37,0,11.59h1V36.5H46c0.827,0,1.5,0.673,1.5,1.5v10.5H49c0.275,0,0.5,0.225,0.5,0.5
			s-0.225,0.5-0.5,0.5h-0.35v1H49h2c0.275,0,0.5,0.225,0.5,0.5s-0.225,0.5-0.5,0.5h-2v1h2c0.827,0,1.5-0.673,1.5-1.5
			S51.827,49.5,51,49.5z"/>
		<path fill="#ffffff" d="M43,47.5c-2.481,0-4.5,2.019-4.5,4.5s2.019,4.5,4.5,4.5s4.5-2.019,4.5-4.5S45.481,47.5,43,47.5z M43,55.5
			c-1.93,0-3.5-1.57-3.5-3.5s1.57-3.5,3.5-3.5s3.5,1.57,3.5,3.5S44.93,55.5,43,55.5z"/>
		<path fill="#ffffff" d="M43,49.5c-1.379,0-2.5,1.121-2.5,2.5s1.121,2.5,2.5,2.5s2.5-1.121,2.5-2.5S44.379,49.5,43,49.5z M43,53.5
			c-0.827,0-1.5-0.673-1.5-1.5s0.673-1.5,1.5-1.5s1.5,0.673,1.5,1.5S43.827,53.5,43,53.5z"/>
		<path fill="#ffffff" d="M25,37.5c-5.238,0-9.5,4.262-9.5,9.5s4.262,9.5,9.5,9.5s9.5-4.262,9.5-9.5S30.238,37.5,25,37.5z M25,55.5
			c-4.687,0-8.5-3.813-8.5-8.5s3.813-8.5,8.5-8.5s8.5,3.813,8.5,8.5S29.687,55.5,25,55.5z"/>
		<path fill="#ffffff" d="M25,39.5c-4.136,0-7.5,3.364-7.5,7.5s3.364,7.5,7.5,7.5s7.5-3.364,7.5-7.5S29.136,39.5,25,39.5z M25,53.5
			c-3.584,0-6.5-2.916-6.5-6.5s2.916-6.5,6.5-6.5s6.5,2.916,6.5,6.5S28.584,53.5,25,53.5z"/>
		<polygon fill="#ffffff" points="28.479,43.258 26.5,44.402 26.5,42.1 25.5,42.1 25.5,46.137 28.98,44.123 		"/>
		<polygon fill="#ffffff" points="29.49,44.986 25.999,47 29.49,49.014 29.99,48.146 28.001,47 29.99,45.854 		"/>
		<polygon fill="#ffffff" points="21.509,50.743 23.5,49.596 23.5,51.9 24.5,51.9 24.5,47.865 21.01,49.876 		"/>
		<polygon fill="#ffffff" points="23.5,44.404 21.509,43.257 21.01,44.124 24.5,46.135 24.5,42.1 23.5,42.1 		"/>
		<polygon fill="#ffffff" points="20.51,44.986 20.01,45.854 21.999,47 20.01,48.146 20.51,49.014 24.001,47 		"/>
		<polygon fill="#ffffff" points="25.5,51.9 26.5,51.9 26.5,49.598 28.479,50.742 28.98,49.877 25.5,47.863 		"/>
		<path fill="#ffffff" d="M35.895,38.329L32.5,31.54v-8.146h-3v8.5c0,0.231,0.055,0.464,0.158,0.671l3.553,7.105
			c0.371,0.74,1.265,1.043,2.013,0.671C35.97,39.968,36.262,39.067,35.895,38.329z M34.776,39.447
			c-0.254,0.128-0.55,0.018-0.671-0.224l-3.553-7.105c-0.035-0.069-0.053-0.146-0.053-0.224v-7.5h1v7.382l3.5,7
			C35.123,39.023,35.023,39.324,34.776,39.447z"/>
		<path fill="#ffffff" d="M41,29.5v1c0.827,0,1.5-0.673,1.5-1.5s-0.673-1.5-1.5-1.5h-4.5V23c0-1.868-0.938-3.519-2.366-4.514
			C35.449,18.415,36.5,17.333,36.5,16v-4c0-2.481-2.019-4.5-4.5-4.5s-4.5,2.019-4.5,4.5c0,2.338,1.245,4.386,3.104,5.531
			c-1.061,0.075-2.062,0.429-2.906,1.07l0.604,0.797C29.077,18.811,30.01,18.5,31,18.5c2.481,0,4.5,2.019,4.5,4.5v7h1v-1.5H41
			c0.275,0,0.5,0.225,0.5,0.5S41.275,29.5,41,29.5z M28.5,12c0-1.93,1.57-3.5,3.5-3.5s3.5,1.57,3.5,3.5v4c0,0.827-0.673,1.5-1.5,1.5
			C30.967,17.5,28.5,15.032,28.5,12z"/>
		<path fill="#ffffff" d="M11,37.5c-0.827,0-1.5,0.673-1.5,1.5s0.673,1.5,1.5,1.5h5c0.827,0,1.5-0.673,1.5-1.5s-0.673-1.5-1.5-1.5H11z M16.5,39
			c0,0.275-0.224,0.5-0.5,0.5h-5c-0.276,0-0.5-0.225-0.5-0.5s0.224-0.5,0.5-0.5h5C16.276,38.5,16.5,38.725,16.5,39z"/>
		<path fill="#ffffff" d="M13,41.5H9c-0.827,0-1.5,0.673-1.5,1.5s0.673,1.5,1.5,1.5h4c0.827,0,1.5-0.673,1.5-1.5S13.827,41.5,13,41.5z M13,43.5H9
			c-0.276,0-0.5-0.225-0.5-0.5s0.224-0.5,0.5-0.5h4c0.276,0,0.5,0.225,0.5,0.5S13.276,43.5,13,43.5z"/>
		<path fill="#ffffff" d="M20.5,35c0-0.827-0.673-1.5-1.5-1.5h-6c-0.827,0-1.5,0.673-1.5,1.5s0.673,1.5,1.5,1.5h6C19.827,36.5,20.5,35.827,20.5,35z
			 M12.5,35c0-0.275,0.224-0.5,0.5-0.5h6c0.276,0,0.5,0.225,0.5,0.5s-0.224,0.5-0.5,0.5h-6C12.724,35.5,12.5,35.275,12.5,35z"/>
		<path fill="#ffffff" d="M43.692,9.701c-2.515,2.515-2.891,6.497-0.948,9.434l-0.466,0.466c-0.585,0.585-0.585,1.536,0,2.121
			c0.584,0.584,1.537,0.586,2.121,0l0.466-0.466c2.941,1.945,6.921,1.564,9.434-0.948c2.924-2.924,2.924-7.683,0-10.606
			C51.373,6.776,46.614,6.777,43.692,9.701z M53.592,19.601c-2.12,2.12-5.629,2.742-8.829,0.345l-1.07,1.069
			c-0.195,0.195-0.512,0.195-0.707,0s-0.195-0.512,0-0.707l1.069-1.07c-2.382-3.18-1.788-6.696,0.345-8.829
			c2.534-2.535,6.656-2.537,9.192,0C56.126,12.942,56.126,17.066,53.592,19.601z"/>
		<path fill="#ffffff" d="M50.004,12.605l-1.688,1.692l-0.327-0.327c-0.568-0.568-1.493-0.568-2.054-0.009c-0.555,0.527-0.604,1.477-0.009,2.072
			l1.351,1.352c0.58,0.597,1.516,0.573,2.065,0.008c0.201-0.198,2.526-2.518,2.725-2.715c0.573-0.573,0.572-1.504,0-2.073
			C51.504,12.04,50.603,12.039,50.004,12.605z M51.36,13.971c-0.198,0.198-2.52,2.513-2.727,2.718
			c-0.172,0.176-0.464,0.181-0.645-0.005l-1.355-1.356c-0.19-0.19-0.168-0.491,0-0.649c0.18-0.178,0.468-0.178,0.648,0l1.036,1.036
			l2.385-2.393c0.222-0.213,0.504-0.163,0.656-0.009l0.001,0.001C51.54,13.49,51.543,13.79,51.36,13.971z"/>
	</g>
</g>
</svg>
